<?xml version="1.0" standalone="no"?>
<!DOCTYPE svg PUBLIC "-//W3C//DTD SVG 20010904//EN"
 "http://www.w3.org/TR/2001/REC-SVG-20010904/DTD/svg10.dtd">
<svg version="1.0" xmlns="http://www.w3.org/2000/svg"
 width="192.000000pt" height="192.000000pt" viewBox="0 0 192.000000 192.000000"
 preserveAspectRatio="xMidYMid meet">
<metadata>
Created by potrace 1.11, written by Peter Selinger 2001-2013
</metadata>
<g transform="translate(0.000000,192.000000) scale(0.100000,-0.100000)"
fill="#000000" stroke="none">
<path d="M916 1719 c-15 -4 -54 -10 -86 -13 -31 -3 -63 -8 -71 -10 -8 -3 -31
-8 -53 -11 -21 -3 -41 -7 -45 -9 -3 -2 -26 -7 -51 -10 -25 -3 -58 -10 -75 -15
-48 -15 -160 -62 -165 -71 -3 -4 -41 -26 -85 -49 -44 -24 -87 -49 -96 -57 -8
-8 -19 -14 -23 -14 -4 0 -14 -6 -21 -14 -8 -8 -44 -36 -80 -62 l-65 -48 0
-445 c0 -503 -5 -471 81 -534 24 -17 50 -37 57 -44 7 -7 18 -13 24 -13 6 0 44
-20 85 -45 40 -25 76 -45 78 -45 3 0 37 -15 77 -34 93 -43 159 -61 263 -71 22
-2 63 -7 90 -11 77 -11 256 -10 295 2 19 6 41 9 48 7 6 -3 12 -1 12 4 0 8 9
10 78 15 17 2 32 5 32 8 0 3 32 12 71 19 42 8 88 24 112 40 23 15 59 33 80 40
51 17 177 89 202 116 11 11 29 27 39 35 18 13 19 13 11 0 -4 -8 1 -6 12 5 11
11 33 32 49 46 35 31 83 85 107 119 15 22 17 59 17 363 l0 339 -31 59 c-30 56
-89 123 -146 167 -92 71 -124 92 -168 110 -116 48 -212 84 -235 88 -14 3 -34
6 -45 8 -11 2 -38 9 -60 14 -35 10 -98 16 -250 26 -22 2 -53 0 -69 -5z"/>
</g>
</svg>
