<?xml version="1.0" standalone="no"?>
<!DOCTYPE svg PUBLIC "-//W3C//DTD SVG 20010904//EN"
 "http://www.w3.org/TR/2001/REC-SVG-20010904/DTD/svg10.dtd">
<svg version="1.0" xmlns="http://www.w3.org/2000/svg"
 width="192.000000pt" height="192.000000pt" viewBox="0 0 192.000000 192.000000"
 preserveAspectRatio="xMidYMid meet">

<g transform="translate(0.000000,192.000000) scale(0.100000,-0.100000)"
fill="#000000" stroke="none">
<path d="M790 1668 c-143 -23 -294 -64 -375 -100 -113 -50 -281 -171 -368
-264 l-47 -51 0 -117 c0 -85 4 -125 15 -146 16 -31 32 -42 21 -15 -7 20 23 20
50 1 19 -15 19 -15 -1 -31 -11 -9 -14 -14 -7 -10 6 3 12 1 12 -4 0 -6 10 -11
23 -11 18 1 19 2 6 10 -26 15 -12 67 26 95 17 14 37 25 43 25 6 0 14 5 17 10
7 12 -12 9 -97 -16 -71 -21 -89 -15 -85 28 2 31 9 37 95 83 121 65 135 85 127
185 l-6 75 20 -23 c21 -24 37 -126 29 -181 -3 -20 0 -32 10 -36 22 -8 32 -6
30 7 -2 7 8 13 22 15 14 1 17 0 7 -3 -26 -8 -10 -24 23 -24 30 0 49 15 28 23
-22 7 -1 19 21 12 23 -7 36 -43 27 -72 -4 -11 -25 -30 -49 -43 -23 -13 -56
-34 -73 -47 -29 -21 -31 -27 -26 -71 l4 -49 -53 -24 -54 -24 36 -3 36 -3 -5
-47 c-5 -52 -12 -59 -62 -67 -56 -10 -80 -23 -80 -45 0 -11 7 -20 15 -20 8 0
15 6 15 14 0 29 84 30 102 2 4 -6 8 -26 8 -43 0 -18 3 -33 8 -33 16 1 141 323
142 366 0 12 8 32 18 45 11 13 22 37 26 52 4 15 11 25 17 22 5 -4 27 2 49 12
l39 18 1 95 c0 52 4 101 9 109 16 26 36 -4 51 -73 13 -63 14 -65 39 -59 14 3
35 12 46 19 11 6 35 15 53 19 17 4 32 10 32 15 0 9 40 1 56 -12 7 -4 14 -22
18 -40 7 -36 4 -39 -106 -104 -105 -62 -104 -60 -83 -146 9 -40 22 -82 27 -94
11 -23 15 -20 115 99 30 35 38 34 40 -5 1 -17 7 -34 13 -38 13 -8 -16 -90 -32
-90 -6 0 -8 -7 -4 -15 3 -9 -3 -36 -13 -62 -11 -27 -20 -41 -23 -32 -3 8 -6
-5 -6 -28 -1 -80 -32 -86 -65 -14 l-23 48 -35 -26 c-20 -14 -59 -43 -87 -64
-29 -22 -55 -50 -58 -63 -6 -25 -28 -32 -40 -13 -4 7 -18 0 -38 -19 -17 -16
-58 -39 -91 -51 -33 -13 -77 -30 -97 -38 -28 -12 -44 -13 -67 -5 -17 6 -31 9
-31 6 0 -3 -9 0 -20 6 -15 8 -19 18 -16 38 2 15 5 33 5 40 1 7 20 31 44 53 36
35 38 40 17 34 -14 -4 -37 -14 -52 -22 -25 -12 -28 -19 -28 -68 0 -49 -2 -55
-20 -55 -13 0 -24 10 -31 27 -12 32 -6 117 9 136 6 7 12 40 13 74 2 47 -2 68
-17 90 -10 15 -17 32 -16 36 3 9 -23 37 -34 37 -3 0 -1 -7 6 -15 7 -8 10 -22
6 -30 -3 -9 0 -15 9 -15 8 0 15 -4 15 -9 0 -17 -20 -23 -35 -11 -18 15 -20 -1
-3 -19 11 -10 10 -14 -4 -22 -16 -9 -18 -27 -18 -154 0 -80 4 -145 8 -145 4 0
32 -24 62 -52 69 -66 118 -100 132 -92 7 4 8 2 4 -4 -9 -15 30 -39 79 -48 37
-7 91 -36 106 -58 4 -5 18 -7 33 -4 14 3 23 2 21 -3 -3 -4 20 -13 50 -20 30
-7 60 -18 65 -24 7 -8 26 -11 53 -8 24 3 78 -2 121 -11 53 -11 83 -13 96 -6
12 6 29 6 50 -2 18 -6 35 -7 39 -2 3 5 26 10 50 11 29 1 40 -2 30 -8 -11 -7
-11 -9 4 -9 9 0 17 5 17 11 0 7 11 9 29 6 17 -4 51 0 78 7 51 14 134 32 196
41 20 3 37 10 37 15 0 6 5 10 11 10 16 0 122 52 137 67 7 7 18 13 24 13 5 0
23 9 39 21 16 11 39 21 51 22 32 3 70 26 63 37 -3 6 0 7 8 5 7 -3 22 4 32 15
19 20 18 21 -1 14 -13 -4 -8 4 14 25 18 17 39 31 46 31 7 0 18 11 25 24 7 13
24 29 38 35 13 6 21 16 18 21 -3 6 8 31 25 56 l31 46 -2 197 -2 198 -23 -5
c-13 -2 -24 -10 -24 -17 0 -16 -19 -23 -43 -17 -14 3 -15 7 -6 18 6 8 7 14 2
14 -5 0 -15 11 -21 25 -7 16 -8 25 -1 25 5 0 12 -7 15 -15 4 -8 11 -12 17 -8
5 3 7 1 4 -5 -4 -5 -3 -21 2 -34 8 -19 10 -20 10 -4 1 10 11 27 23 37 25 23
32 24 25 5 -4 -10 -1 -13 9 -9 7 3 14 14 14 25 0 10 -4 16 -10 13 -5 -3 -10
-1 -10 4 0 6 5 11 10 11 6 0 10 24 10 53 0 41 -6 63 -29 98 -48 75 -87 118
-163 180 -107 88 -206 135 -416 200 -110 35 -391 49 -522 27z m600 -108 c8 -5
11 -10 5 -10 -5 0 -17 5 -25 10 -8 5 -10 10 -5 10 6 0 17 -5 25 -10z m-708
-98 c7 -10 32 -29 55 -42 23 -13 41 -26 41 -29 -1 -3 4 -19 11 -35 16 -40 6
-45 -28 -12 -16 15 -48 33 -72 40 -32 10 -45 20 -52 40 -17 50 16 77 45 38z
m944 -100 c6 -8 16 -12 22 -8 7 4 24 -12 42 -40 52 -82 40 -160 -40 -268 -42
-58 -66 -69 -77 -38 -4 9 -13 -30 -19 -91 -10 -88 -17 -116 -38 -146 -30 -43
-33 -61 -9 -61 9 0 13 3 10 7 -12 11 28 32 53 27 14 -3 43 3 65 12 22 10 49
19 60 19 32 3 134 36 140 46 3 5 -2 6 -12 3 -15 -6 -15 -4 2 9 23 18 39 22 30
7 -3 -5 2 -10 11 -10 10 0 14 -3 11 -7 -4 -3 1 -11 10 -18 25 -18 9 -43 -42
-65 -82 -35 -219 -77 -310 -95 -49 -9 -106 -25 -125 -35 -93 -48 -234 -85
-264 -68 -9 5 -16 18 -16 28 0 24 -16 25 -64 5 -20 -8 -36 -13 -36 -10 0 3
-20 -8 -44 -25 -25 -16 -52 -30 -60 -30 -9 0 -16 -4 -16 -9 0 -12 -85 -32
-105 -25 -13 5 -15 14 -11 37 10 51 36 69 148 103 49 15 76 48 103 124 12 34
11 35 -23 55 -27 15 -36 27 -37 50 -3 56 16 97 66 146 27 27 48 49 46 49 -3 0
-21 -7 -40 -15 -20 -8 -47 -15 -61 -15 -21 0 -24 5 -24 35 0 29 5 38 29 50 15
8 36 15 46 15 10 0 41 11 68 25 78 38 94 32 108 -40 5 -26 -1 -38 -39 -79 -47
-52 -45 -39 -29 -165 3 -22 8 -46 11 -55 5 -13 -1 -16 -28 -16 -32 0 -36 -3
-47 -42 -7 -24 -16 -55 -20 -70 -7 -20 -6 -25 5 -21 7 3 12 9 11 14 -1 5 17
18 41 29 23 11 40 14 36 8 -4 -6 -1 -9 7 -6 8 3 13 11 11 18 -2 7 5 9 17 5 11
-3 22 -1 26 5 3 5 17 10 30 10 13 0 30 7 39 15 21 22 49 18 75 -9 27 -29 57
-30 57 -3 0 12 -10 20 -28 24 -30 6 -38 14 -56 55 -9 23 -8 32 14 63 13 20 22
41 18 46 -3 5 -10 24 -15 41 -8 29 -5 35 37 75 44 41 45 43 21 43 -14 0 -31 2
-39 5 -9 4 -13 -5 -14 -30 -3 -73 -27 -57 -55 36 -20 67 -21 72 -4 114 20 54
126 155 162 155 13 0 23 4 23 9 0 11 64 19 100 12 14 -2 30 -11 36 -19z
m-1232 -167 c3 -8 1 -15 -4 -15 -6 0 -10 7 -10 15 0 8 2 15 4 15 2 0 6 -7 10
-15z m1489 -23 c4 9 6 9 6 1 1 -6 -6 -18 -14 -27 -18 -17 -20 -30 -3 -20 7 4
8 3 4 -4 -10 -16 -38 -2 -32 15 3 8 6 22 6 30 0 12 3 13 14 4 11 -9 15 -9 19
1z m12 -184 c6 -16 1 -26 -16 -39 -28 -21 -38 -17 -18 8 12 15 12 16 -3 10
-23 -8 -23 -3 -1 23 22 26 30 25 38 -2z m-121 -13 c-7 -16 -24 -21 -24 -6 0 8
7 13 27 20 1 1 0 -6 -3 -14z m42 -42 c-10 -10 -19 5 -10 18 6 11 8 11 12 0 2
-7 1 -15 -2 -18z m74 -18 c-7 -8 -17 -15 -22 -15 -11 0 14 29 26 30 5 0 3 -7
-4 -15z m-968 -57 c-7 -7 -12 -8 -12 -2 0 14 12 26 19 19 2 -3 -1 -11 -7 -17z
m18 -28 c0 -5 -4 -10 -10 -10 -5 0 -10 5 -10 10 0 6 5 10 10 10 6 0 10 -4 10
-10z m-304 -454 c8 -8 14 -19 14 -25 0 -6 7 -8 16 -4 12 4 15 2 12 -8 -6 -18
-50 -25 -47 -7 3 28 -2 40 -15 35 -10 -4 -13 -1 -9 9 7 18 11 18 29 0z m84
-28 c0 -6 -6 -5 -15 2 -8 7 -15 14 -15 16 0 2 7 1 15 -2 8 -4 15 -11 15 -16z
m-95 -8 c-3 -5 -11 -10 -16 -10 -6 0 -7 5 -4 10 3 6 11 10 16 10 6 0 7 -4 4
-10z m81 -66 c-3 -8 -10 -13 -15 -9 -6 3 -14 -2 -19 -11 -7 -13 -13 -14 -28
-5 -18 11 -18 11 1 9 14 -2 19 2 17 15 -3 19 24 24 31 5 3 -7 6 -2 7 12 1 14
4 19 7 12 3 -7 2 -20 -1 -28z"/>
<path d="M1520 1286 c-78 -29 -160 -90 -160 -119 0 -21 10 -25 40 -16 19 5 20
7 6 8 -23 1 -12 16 12 17 10 1 30 2 45 3 22 1 31 8 40 31 6 17 15 30 20 30 4
0 13 -13 18 -30 6 -16 15 -30 20 -30 5 0 15 -16 23 -35 8 -19 17 -35 20 -35 9
0 64 106 70 136 6 29 4 33 -25 43 -41 14 -85 13 -129 -3z m100 -106 c0 -11 -4
-20 -10 -20 -5 0 -10 9 -10 20 0 11 5 20 10 20 6 0 10 -9 10 -20z"/>
<path d="M1471 996 c-9 -11 -9 -16 0 -22 7 -4 9 -3 5 4 -3 5 0 12 6 15 7 2 10
7 7 11 -3 4 -12 0 -18 -8z"/>
<path d="M1060 889 c-13 -24 -4 -41 10 -19 10 16 13 40 5 40 -2 0 -9 -9 -15
-21z"/>
<path d="M1438 849 c-10 -5 -15 -16 -12 -24 7 -16 34 -21 34 -6 0 5 3 16 6 25
7 18 -3 20 -28 5z"/>
<path d="M619 1020 c-10 -6 -16 -26 -17 -62 -2 -55 -20 -190 -28 -221 -4 -13
2 -11 23 9 15 15 42 37 60 51 29 22 31 27 21 55 -6 17 -18 64 -27 104 -13 61
-19 71 -32 64z"/>
<path d="M499 983 c0 -4 -2 -36 -4 -70 -4 -58 -2 -61 21 -67 13 -4 24 -14 24
-23 0 -9 3 -14 6 -10 6 6 22 167 17 167 -2 0 -15 -7 -29 -16 -13 -9 -28 -14
-32 -10 -3 4 0 11 7 15 9 6 10 11 2 15 -6 4 -11 4 -12 -1z"/>
<path d="M471 788 c-28 -72 -55 -127 -77 -155 l-24 -32 41 18 c66 30 86 57 94
129 6 53 5 62 -9 62 -9 0 -20 -10 -25 -22z"/>
<path d="M760 785 c-6 -8 -10 -22 -8 -32 3 -13 7 -9 15 15 13 35 12 39 -7 17z"/>
</g>
</svg>
